<svg width="60" height="67" viewBox="0 0 60 67" fill="none" xmlns="http://www.w3.org/2000/svg">
<path d="M55.949 14.9986L55.9491 14.9986C57.6017 15.9526 58.6101 17.7242 58.5869 19.6321L58.2591 46.5801C58.2591 46.5801 58.2591 46.5802 58.2591 46.5802C58.2363 48.4193 57.258 50.1139 55.6766 51.0526L32.4997 64.8109C30.8587 65.7849 28.8197 65.7975 27.1672 64.8436L3.70925 51.3017L3.70922 51.3017C2.09414 50.3695 1.09125 48.654 1.07115 46.7895L0.776249 19.4817C0.755459 17.5561 1.78551 15.7721 3.46385 14.8272C3.46385 14.8272 3.46385 14.8272 3.46386 14.8272L27.2637 1.4287L27.2637 1.42869C28.8888 0.513799 30.8761 0.524548 32.4912 1.45687L55.949 14.9986Z" fill="#121214" stroke="url(#paint0_linear_13063_5393)" stroke-width="1.5"></path>
<path d="M49.6634 19.5017L32.07 9.68395C30.6865 8.91196 28.9842 8.90304 27.5922 9.66062L9.74231 19.3746C8.30466 20.1569 7.42227 21.6342 7.44008 23.2287L7.66126 43.0269C7.67848 44.5708 8.53759 45.9914 9.92108 46.7633L27.5145 56.5812C28.9301 57.3711 30.6767 57.3606 32.0822 56.5541L49.4649 46.5794C50.8196 45.802 51.6577 44.3987 51.6771 42.8759L51.923 23.3385C51.9429 21.7587 51.0791 20.2916 49.6634 19.5017Z" fill="url(#paint1_linear_13063_5393)"></path>
<path d="M28.6487 16.1766C29.0621 15.9423 29.5279 15.8193 30.0016 15.8193C30.4752 15.8193 30.941 15.9423 31.3545 16.1766C35.4742 18.5355 39.5943 20.894 43.7147 23.2522C44.1022 23.4759 44.4249 23.7988 44.6505 24.1886C44.8761 24.5784 44.9966 25.0214 45 25.4733V39.671C44.992 40.1396 44.8594 40.5972 44.6164 40.9959C44.3734 41.3945 44.0288 41.7194 43.619 41.9364C39.5124 44.2827 35.4069 46.63 31.3024 48.9783C30.8812 49.2144 30.4052 49.3318 29.9241 49.3183C29.4429 49.3047 28.9741 49.1608 28.5664 48.9013C27.3357 48.1778 26.1038 47.4561 24.871 46.7361C24.6004 46.6119 24.3578 46.4328 24.1581 46.2099C24.3152 45.9989 24.5962 45.9683 24.8241 45.8745C25.3299 45.6911 25.8177 45.4601 26.2811 45.1847C26.3395 45.1498 26.4068 45.1334 26.4745 45.1375C26.5422 45.1416 26.6071 45.1662 26.6609 45.2079C27.7141 45.8196 28.7569 46.4493 29.8132 47.0546C30.039 47.1865 30.2669 47.0114 30.4595 46.9028C34.489 44.5945 38.52 42.289 42.5523 39.9864C42.6242 39.95 42.6836 39.8925 42.7228 39.8214C42.762 39.7503 42.7791 39.6688 42.7719 39.5877C42.7719 34.9058 42.7719 30.2231 42.7719 25.5398C42.7792 25.4487 42.7583 25.3575 42.712 25.279C42.6657 25.2006 42.5964 25.1387 42.5138 25.1021C38.4204 22.7664 34.3291 20.4296 30.2399 18.0918C30.1689 18.0426 30.0849 18.0163 29.999 18.0163C29.913 18.0163 29.829 18.0426 29.758 18.0918C25.6647 20.4289 21.5737 22.7667 17.4852 25.1052C17.4022 25.1409 17.3325 25.2022 17.2859 25.2805C17.2394 25.3587 17.2184 25.4498 17.226 25.5408C17.226 30.2228 17.226 34.9054 17.226 39.5888C17.2189 39.6697 17.2365 39.7509 17.2763 39.8214C17.3161 39.8919 17.3763 39.9484 17.4487 39.9832C18.5408 40.6104 19.6332 41.2358 20.7259 41.8594C21.0289 42.0493 21.368 42.1722 21.7211 42.2202C22.0742 42.2681 22.4333 42.2401 22.775 42.1379C23.0711 42.0248 23.326 41.8228 23.5059 41.559C23.6857 41.2951 23.7818 40.982 23.7814 40.6613C23.7866 36.0061 23.7814 31.3509 23.7814 26.6967C23.7801 26.6473 23.7892 26.5982 23.808 26.5527C23.8269 26.5071 23.855 26.4661 23.8906 26.4323C23.9262 26.3985 23.9684 26.3728 24.0145 26.3567C24.0606 26.3407 24.1095 26.3347 24.1581 26.3392C24.6784 26.3392 25.2081 26.3318 25.7326 26.3392C25.7834 26.3416 25.8331 26.3547 25.8785 26.3778C25.9239 26.4008 25.964 26.4333 25.9963 26.4731C26.0286 26.5128 26.0522 26.559 26.0658 26.6086C26.0794 26.6582 26.0825 26.7101 26.075 26.761C26.075 31.4458 26.0802 36.1306 26.075 40.8143C26.1099 41.4506 25.9758 42.0848 25.6866 42.6507C25.3974 43.2167 24.9637 43.6937 24.4307 44.032C23.7185 44.3684 22.9387 44.5322 22.1531 44.5104C21.3676 44.4886 20.5978 44.2819 19.9048 43.9065C18.7038 43.299 17.558 42.5829 16.3789 41.9322C15.9696 41.7158 15.6256 41.3916 15.3829 40.9936C15.1402 40.5957 15.0079 40.1388 15 39.671V25.4733C15.0035 25.012 15.129 24.56 15.3632 24.1644C15.5975 23.7688 15.932 23.444 16.3321 23.2238C20.4393 20.8761 24.5449 18.527 28.6487 16.1766Z" fill="#8CC84B"></path>
<path d="M32.2299 26.0092C34.0442 25.7712 35.8879 26.0571 37.5489 26.834C38.1508 27.1978 38.6485 27.7148 38.9926 28.3336C39.3367 28.9524 39.5153 29.6516 39.5106 30.3619C39.4872 30.4507 39.4329 30.528 39.3578 30.5795C39.2827 30.6311 39.1917 30.6534 39.1016 30.6424C38.5813 30.6424 38.0609 30.6498 37.5406 30.6424C37.4407 30.6359 37.3469 30.5918 37.2774 30.5189C37.2079 30.4459 37.1678 30.3493 37.1649 30.248C37.106 29.904 36.974 29.5771 36.7779 29.2901C36.5819 29.003 36.3265 28.7627 36.0295 28.5858C35.0413 28.1881 33.9743 28.0335 32.9158 28.1344C32.1357 28.1097 31.3642 28.3042 30.6866 28.6965C30.4533 28.8799 30.2825 29.1327 30.1983 29.4195C30.1141 29.7063 30.1207 30.0126 30.2172 30.2954C30.3838 30.6973 30.8417 30.8228 31.2163 30.9462C33.3747 31.5178 35.6611 31.4608 37.7779 32.2118C38.2324 32.3397 38.6521 32.5713 39.0046 32.8891C39.3571 33.2068 39.6331 33.6022 39.8114 34.0448C40.0236 34.6728 40.0749 35.3453 39.9604 35.9989C39.8459 36.6525 39.5694 37.2659 39.1568 37.7815C38.4104 38.5667 37.4408 39.0961 36.3833 39.2961C35.0059 39.5796 33.5929 39.6404 32.1966 39.4764C30.8567 39.399 29.5718 38.9093 28.5136 38.0726C28.0938 37.6828 27.7641 37.2037 27.5482 36.6696C27.3323 36.1356 27.2356 35.5598 27.2648 34.9835C27.2743 34.8903 27.3198 34.8047 27.3913 34.7454C27.4629 34.6861 27.5547 34.6579 27.6467 34.6671C28.1671 34.6671 28.6926 34.6618 29.2161 34.6671C29.2646 34.666 29.3127 34.6746 29.3579 34.6925C29.403 34.7104 29.4442 34.7372 29.4791 34.7713C29.5139 34.8054 29.5417 34.8463 29.5609 34.8914C29.5801 34.9365 29.5902 34.985 29.5907 35.0341C29.6169 35.3616 29.7088 35.6803 29.861 35.9705C30.0131 36.2607 30.2222 36.5163 30.4753 36.7216C31.5958 37.2803 32.8479 37.5112 34.0907 37.3882C35.131 37.4674 36.1691 37.2088 37.0546 36.6499C37.2581 36.4482 37.4063 36.1962 37.4844 35.9188C37.5625 35.6413 37.5679 35.348 37.5 35.0679C37.373 34.5996 36.8891 34.3813 36.4739 34.2389C34.3436 33.5554 32.0312 33.8033 29.9175 33.0313C29.475 32.9001 29.0657 32.6731 28.7181 32.3661C28.3704 32.0592 28.0926 31.6794 27.9038 31.2531C27.6614 30.6167 27.6001 29.924 27.7271 29.2541C27.854 28.5841 28.1641 27.9638 28.6219 27.4636C29.6193 26.5713 30.8892 26.0541 32.2185 25.9987L32.2299 26.0092Z" fill="#8CC84B"></path>
<defs>
<linearGradient id="paint0_linear_13063_5393" x1="15.6776" y1="6.63003" x2="44.7752" y2="58.2775" gradientUnits="userSpaceOnUse">
<stop stop-color="#8CC84B"></stop>
<stop offset="1" stop-color="#8CC84B" stop-opacity="0.25"></stop>
</linearGradient>
<linearGradient id="paint1_linear_13063_5393" x1="7.44805" y1="9.23115" x2="55.4391" y2="53.6586" gradientUnits="userSpaceOnUse">
<stop stop-color="#21381B"></stop>
<stop offset="1" stop-color="#121214"></stop>
</linearGradient>
</defs>
</svg>