<svg width="60" height="67" viewBox="0 0 60 67" fill="none" xmlns="http://www.w3.org/2000/svg">
<path d="M55.949 14.9987L55.9491 14.9987C57.6017 15.9527 58.6101 17.7244 58.5869 19.6322L58.2591 46.5802C58.2591 46.5803 58.2591 46.5803 58.2591 46.5803C58.2363 48.4194 57.258 50.114 55.6766 51.0528L32.4997 64.811C30.8587 65.785 28.8197 65.7977 27.1672 64.8438L3.70925 51.3019L3.70922 51.3018C2.09414 50.3696 1.09125 48.6541 1.07115 46.7896L0.776249 19.4818C0.755459 17.5562 1.78551 15.7722 3.46385 14.8274C3.46385 14.8274 3.46385 14.8274 3.46386 14.8274L27.2637 1.42883L27.2637 1.42882C28.8888 0.513921 30.8761 0.52467 32.4912 1.45699L55.949 14.9987Z" fill="#121214" stroke="url(#paint0_linear_12918_22485)" stroke-width="1.5"></path>
<path d="M49.6634 19.5017L32.07 9.68395C30.6865 8.91196 28.9842 8.90304 27.5922 9.66062L9.74231 19.3746C8.30466 20.1569 7.42227 21.6342 7.44008 23.2287L7.66126 43.0269C7.67848 44.5708 8.53759 45.9914 9.92108 46.7633L27.5145 56.5812C28.9301 57.3711 30.6767 57.3606 32.0822 56.5541L49.4649 46.5794C50.8196 45.802 51.6577 44.3987 51.6771 42.8759L51.923 23.3385C51.9429 21.7587 51.0791 20.2916 49.6634 19.5017Z" fill="url(#paint1_linear_12918_22485)"></path>
<path d="M30.9709 44.6381C30.6709 44.3717 30.3579 44.1044 30.0589 43.8083C29.8199 44.0301 29.5959 44.238 29.3589 44.445C26.3999 47.0067 23.3499 48.0731 21.5419 47.0364C19.7929 46.0442 19.2419 43.1131 19.9419 39.4256C20.0166 39.0259 20.1063 38.6262 20.2109 38.2265C19.8969 38.1337 19.5979 38.0483 19.2989 37.9481C15.576 36.6719 13.125 34.5993 13.125 32.5259C13.125 30.5276 15.412 28.5878 18.984 27.3441C19.3839 27.2105 19.8059 27.0777 20.2399 26.9589C20.1399 26.5737 20.0609 26.2034 19.9859 25.8452C19.2379 22.102 19.7609 19.1115 21.5249 18.1045C23.3629 17.0381 26.4129 18.1788 29.4759 20.8583C29.6549 21.0207 29.8349 21.1989 30.0289 21.3762C30.3129 21.1098 30.5819 20.8434 30.8659 20.6068C33.7658 18.1008 36.6498 17.0529 38.4138 18.06C40.2518 19.0958 40.7908 22.2941 39.9688 26.248C39.9238 26.5004 39.8688 26.7371 39.8048 26.9905C40.1788 27.0944 40.5518 27.2123 40.8958 27.3311C44.5427 28.5748 46.9047 30.5146 46.8747 32.5574C46.8747 34.6448 44.3487 36.7034 40.4748 37.9768C40.2658 38.0362 40.0568 38.1105 39.8468 38.169C39.9368 38.465 39.9958 38.7611 40.0558 39.0572C40.8328 42.8922 40.2348 46.0312 38.4268 47.0679C37.952 47.3332 37.4059 47.4684 36.8518 47.4577C35.1948 47.455 33.0908 46.4424 30.9709 44.6381ZM33.9008 39.2038C33.0423 40.4434 32.0986 41.6305 31.0759 42.7577C31.3598 43.0361 31.6438 43.2913 31.9278 43.528C34.3938 45.6302 36.6658 46.4154 37.7278 45.8084C38.0521 45.5492 38.3171 45.2322 38.5071 44.8762C38.697 44.5202 38.8081 44.1325 38.8338 43.7359C39.0496 42.2666 38.9887 40.7736 38.6538 39.3236C38.6088 39.0572 38.5538 38.7908 38.4748 38.5096C36.9688 38.8367 35.4406 39.0687 33.9008 39.2038ZM21.3749 39.6781C20.7629 42.8338 21.2109 45.1857 22.2749 45.7936C22.6519 45.9398 23.0589 46.0073 23.467 45.9912C23.8752 45.9752 24.2746 45.876 24.6369 45.7008C26.0463 45.151 27.3299 44.3569 28.4189 43.3609C28.6429 43.1827 28.8519 42.9758 29.0769 42.7688C28.0316 41.6413 27.063 40.4544 26.1769 39.215C24.6429 39.096 23.1197 38.879 21.6179 38.5653C21.5249 38.9523 21.4499 39.3217 21.3749 39.6781ZM30.0749 41.7506C30.7329 41.0248 31.3898 40.2257 32.0478 39.3375C31.3898 39.3672 30.7029 39.382 30.0149 39.382C29.3269 39.382 28.6849 39.3672 28.0419 39.3375C28.7139 40.2099 29.3869 41.0248 30.0739 41.7506H30.0749ZM26.9349 27.2996C26.3669 28.1135 25.8139 28.9702 25.2909 29.8761C24.7679 30.7643 24.2909 31.6674 23.8559 32.5677C24.3049 33.4559 24.7829 34.359 25.3059 35.2778C25.8289 36.166 26.3819 37.0413 26.9499 37.8682C27.9359 37.9276 28.9679 37.961 30.0139 37.961C31.0599 37.961 32.1058 37.9313 33.1078 37.858C33.6458 37.0441 34.1988 36.1697 34.7228 35.2667C35.2468 34.3636 35.7388 33.4457 36.1728 32.5574C35.7388 31.6841 35.2458 30.781 34.7228 29.877C34.1998 28.973 33.6468 28.1135 33.0938 27.3005C32.0938 27.2262 31.0608 27.1817 30.0149 27.1817C28.9689 27.1817 27.9369 27.2253 26.9349 27.2996ZM22.0029 37.2046C23.0285 37.422 24.0665 37.5853 25.1119 37.6937C24.7529 37.1313 24.3949 36.5679 24.0509 35.9758C23.7219 35.3985 23.3929 34.8212 23.0939 34.2439C22.6609 35.25 22.3019 36.244 22.0029 37.2046ZM35.9778 35.9609C35.6338 36.5531 35.2898 37.1155 34.9468 37.664C36.0079 37.5407 37.0609 37.3628 38.1008 37.1313C37.7761 36.1318 37.3969 35.1483 36.9648 34.1845C36.6508 34.7766 36.3218 35.3688 35.9778 35.9609ZM19.4469 28.7057C16.398 29.7721 14.56 31.3249 14.56 32.5407C14.6181 32.9319 14.7589 33.3085 14.9743 33.6491C15.1896 33.9896 15.4753 34.2873 15.815 34.5251C16.9815 35.4356 18.3193 36.1382 19.7609 36.5976C20.0299 36.6904 20.3139 36.761 20.5979 36.8501C21.0571 35.3937 21.6111 33.9645 22.2569 32.5704C21.6098 31.2002 21.0607 29.792 20.6129 28.3548C20.2096 28.4551 19.8209 28.572 19.4469 28.7057ZM37.7868 32.5407C38.45 33.9171 39.0179 35.3313 39.4868 36.7749C39.6818 36.7155 39.8758 36.6561 40.0548 36.5967C43.3877 35.5015 45.4547 33.8281 45.4657 32.525C45.4657 31.311 43.5527 29.7405 40.4288 28.675C40.1148 28.572 39.7718 28.4681 39.4288 28.3641C38.9759 29.7868 38.4275 31.1817 37.7868 32.5407ZM35.9638 29.1354C36.3078 29.7276 36.6368 30.3058 36.9348 30.8831C37.3501 29.9396 37.7093 28.9757 38.0108 27.9957C36.9956 27.7667 35.9677 27.5889 34.9318 27.4629C35.2908 28.0096 35.6338 28.5581 35.9628 29.1354H35.9638ZM22.0179 27.9836C22.3179 28.9312 22.6759 29.8937 23.0939 30.8849C23.3939 30.3076 23.7219 29.7303 24.0509 29.153C24.3799 28.5757 24.7229 28.0133 25.0819 27.4648C24.0059 27.5956 22.9899 27.7729 22.0179 27.9836ZM31.8078 21.6908C31.5538 21.9126 31.2998 22.1493 31.0449 22.3869C32.0828 23.5002 33.0367 24.6787 33.8998 25.9138C35.4209 26.0501 36.9294 26.2877 38.4138 26.6248C38.4738 26.403 38.5138 26.1802 38.5638 25.9584C39.2638 22.5531 38.8328 19.9469 37.6968 19.2962C37.4474 19.1663 37.1646 19.1021 36.8788 19.1106C35.6578 19.105 33.7838 19.9877 31.8078 21.688V21.6908ZM22.2419 19.3334C21.1809 19.9404 20.7619 22.3684 21.3899 25.5667C21.4649 25.9073 21.5399 26.247 21.6289 26.6025C23.1153 26.2778 24.6233 26.0453 26.1429 25.9064C27.0091 24.6697 27.9681 23.4911 29.0129 22.3795C28.8489 22.2162 28.6689 22.0686 28.5049 21.9201C26.4249 20.0944 24.4249 19.131 23.1189 19.131C22.812 19.1213 22.5082 19.1914 22.2419 19.3334ZM32.0168 25.7885C31.4004 24.9608 30.7354 24.1651 30.0249 23.4051C29.3529 24.13 28.6799 24.93 28.0249 25.7885C28.6829 25.7588 29.3399 25.744 30.0129 25.744C30.6859 25.744 31.3598 25.7561 32.0178 25.7885H32.0168ZM27.0249 32.6001C27.0109 32.2196 27.0779 31.8402 27.2221 31.4838C27.3664 31.1273 27.585 30.8008 27.8655 30.5229C28.1459 30.245 28.4827 30.0212 28.8565 29.8643C29.2303 29.7075 29.6338 29.6206 30.0439 29.6088C30.8712 29.6349 31.6536 29.9645 32.2195 30.5253C32.7855 31.086 33.0887 31.8322 33.0628 32.6001C33.0895 33.3687 32.7865 34.1157 32.2203 34.6771C31.654 35.2385 30.8709 35.5684 30.0429 35.5943C29.6326 35.5824 29.2289 35.4955 28.8549 35.3384C28.481 35.1814 28.1441 34.9573 27.8637 34.6791C27.5833 34.4009 27.3648 34.0741 27.2209 33.7173C27.0769 33.3605 27.0103 32.9809 27.0249 32.6001Z" fill="white"></path>
<defs>
<linearGradient id="paint0_linear_12918_22485" x1="15.2657" y1="7.04453" x2="45.6035" y2="58.2672" gradientUnits="userSpaceOnUse">
<stop stop-color="#4DBCD6"></stop>
<stop offset="1" stop-color="#4DBCD6" stop-opacity="0.24"></stop>
</linearGradient>
<linearGradient id="paint1_linear_12918_22485" x1="7.45003" y1="9.22912" x2="55.3299" y2="53.5536" gradientUnits="userSpaceOnUse">
<stop stop-color="#1A434D"></stop>
<stop offset="1" stop-color="#121214"></stop>
</linearGradient>
</defs>
</svg>